<svg width="16" height="16" viewBox="0 0 16 16" fill="none" xmlns="http://www.w3.org/2000/svg">
<circle cx="8" cy="8" r="8" fill="#5C5C5C"/>
<rect x="4.2666" y="4.26672" width="1.06667" height="1.06667" fill="white"/>
<rect x="5.33301" y="4.26685" width="1.06667" height="1.06667" fill="white"/>
<rect x="5.33301" y="5.3335" width="1.06667" height="1.06667" fill="white"/>
<rect x="6.3999" y="6.40015" width="1.06667" height="1.06667" fill="white"/>
<rect x="7.46631" y="7.4668" width="1.06667" height="1.06667" fill="white"/>
<rect x="8.5332" y="8.53345" width="1.06667" height="1.06667" fill="white"/>
<rect width="1.06667" height="1.06667" transform="matrix(-1 0 0 1 10.6665 9.6001)" fill="white"/>
<rect width="1.06667" height="1.06667" transform="matrix(-1 0 0 1 10.6665 10.6667)" fill="white"/>
<rect width="1.06667" height="1.06667" transform="matrix(-1 0 0 1 11.7334 10.6667)" fill="white"/>
<rect x="6.3999" y="8.53345" width="1.06667" height="1.06667" fill="white"/>
<rect x="4.2666" y="10.6667" width="1.06667" height="1.06667" fill="white"/>
<rect x="5.33301" y="9.6001" width="1.06667" height="1.06667" fill="white"/>
<rect x="5.33301" y="10.6667" width="1.06667" height="1.06667" fill="white"/>
<rect x="8.5332" y="6.40015" width="1.06667" height="1.06667" fill="white"/>
<rect x="9.6001" y="5.3335" width="1.06667" height="1.06667" fill="white"/>
<rect x="9.6001" y="4.26685" width="1.06667" height="1.06667" fill="white"/>
<rect x="10.6665" y="4.26685" width="1.06667" height="1.06667" fill="white"/>
</svg>
