<svg width="111" height="111" viewBox="0 0 111 111" fill="none" xmlns="http://www.w3.org/2000/svg">
<path d="M82.6873 6.41039C83.7085 7.18447 84.6701 8.03581 85.5658 8.96499L85.2058 9.312C85.6404 9.76288 86.0592 10.2325 86.4615 10.7209C86.8637 11.2093 87.2443 11.7104 87.6035 12.2234L88.0131 11.9366C88.7533 12.9938 89.4045 14.1008 89.9685 15.2514L89.5195 15.4715C90.0716 16.5979 90.5387 17.7677 90.9224 18.9752L91.3989 18.8237C91.7841 20.0359 92.0865 21.2844 92.3078 22.5634L91.8151 22.6487C92.0274 23.8759 92.164 25.1328 92.2261 26.4143L92.7255 26.3901C92.7867 27.6527 92.7767 28.9377 92.6968 30.2401L92.1977 30.2095C92.1214 31.4535 91.9804 32.7145 91.776 33.9881L92.2696 34.0673C92.0693 35.3151 91.8089 36.5739 91.4895 37.8397L91.0047 37.7174C90.6986 38.9307 90.3376 40.1512 89.9226 41.3751L90.3961 41.5356C89.9903 42.7328 89.5335 43.9327 89.0268 45.1319L88.5662 44.9373C88.0779 46.0929 87.5427 47.2483 86.9614 48.4003L87.4078 48.6256C86.8363 49.7581 86.2208 50.887 85.5622 52.0096L85.1309 51.7565C84.4943 52.8416 83.8169 53.9208 83.0995 54.9916L83.5149 55.2699C82.8081 56.3247 82.0629 57.3713 81.2799 58.407L80.8811 58.1055C80.1201 59.1121 79.3232 60.1086 78.491 61.0926L78.8727 61.4155C78.0519 62.3859 77.1971 63.3442 76.3088 64.2882L75.9447 63.9456C75.0785 64.8661 74.1802 65.773 73.2505 66.6642L73.5965 67.0251C72.6779 67.9056 71.7289 68.7709 70.75 69.6188L70.4226 69.2409C69.9417 69.6574 69.4536 70.0698 68.9582 70.4778C68.4629 70.8857 67.9646 71.2858 67.4635 71.6779L67.7717 72.0716C66.7518 72.8698 65.7207 73.6354 64.6804 74.3682L64.3925 73.9594C63.3396 74.701 62.2773 75.4087 61.2078 76.0824L61.4743 76.5055C60.3776 77.1963 59.2732 77.8515 58.1633 78.4711L57.9196 78.0345C56.7943 78.6627 55.6636 79.2538 54.5297 79.8076L54.7492 80.2569C53.5826 80.8268 52.4126 81.3575 51.2418 81.849L51.0483 81.388C49.8598 81.8868 48.6708 82.3447 47.4838 82.7615L47.6495 83.2333C46.4215 83.6645 45.1955 84.0521 43.9744 84.3959L43.839 83.9146C42.5969 84.2643 41.3603 84.5681 40.1326 84.8258L40.2353 85.3151C38.9611 85.5825 37.6959 85.8008 36.4431 85.9697L36.3763 85.4742C35.0956 85.6468 33.8286 85.7671 32.579 85.835L32.6061 86.3342C31.3026 86.405 30.0172 86.4193 28.7542 86.3767L28.771 85.877C27.4819 85.8335 26.2172 85.7301 24.9817 85.5665L24.9161 86.0622C23.6225 85.8909 22.3594 85.6545 21.1319 85.3523L21.2514 84.8668C20.0056 84.5602 18.7982 84.1852 17.6344 83.7415L17.4563 84.2087C16.2434 83.7464 15.076 83.2102 13.9602 82.5998L14.2002 82.1612C13.0887 81.5531 12.0301 80.8704 11.0304 80.1126L10.7284 80.5111C9.70722 79.737 8.74561 78.8857 7.84991 77.9565L8.20989 77.6095C7.77526 77.1586 7.35645 76.689 6.95421 76.2006C6.55197 75.7122 6.17136 75.2111 5.81217 74.6981L5.40259 74.9849C4.66235 73.9277 4.01115 72.8207 3.4472 71.6701L3.89617 71.45C3.34409 70.3236 2.87698 69.1538 2.4933 67.9463L2.01678 68.0978C1.63161 66.8856 1.32922 65.6371 1.10793 64.3581L1.60061 64.2728C1.38829 63.0456 1.25171 61.7887 1.18959 60.5072L0.690178 60.5314C0.628975 59.2688 0.639037 57.9838 0.71893 56.6814L1.21799 56.712C1.2943 55.468 1.43525 54.207 1.63972 52.9334L1.14605 52.8542C1.34637 51.6064 1.60681 50.3476 1.92618 49.0818L2.41099 49.2041C2.71711 47.9908 3.07813 46.7703 3.49307 45.5464L3.01954 45.3859C3.42543 44.1887 3.88222 42.9888 4.38894 41.7895L4.84951 41.9842C5.33779 40.8286 5.87301 39.6732 6.45433 38.5212L6.00794 38.2959C6.57941 37.1634 7.19487 36.0345 7.8535 34.9119L8.28475 35.1649C8.92136 34.0799 9.59875 33.0007 10.3162 31.9299L9.90081 31.6516C10.6076 30.5967 11.3528 29.5502 12.1358 28.5145L12.5346 28.816C13.2956 27.8094 14.0925 26.8129 14.9247 25.8289L14.543 25.506C15.3638 24.5356 16.2186 23.5772 17.1069 22.6333L17.471 22.9759C18.3372 22.0554 19.2355 21.1485 20.1651 20.2573L19.8192 19.8964C20.7378 19.0158 21.6868 18.1506 22.6657 17.3027L22.9931 17.6806C23.4739 17.264 23.9621 16.8517 24.4575 16.4437C24.9528 16.0358 25.4511 15.6357 25.9521 15.2436L25.644 14.8498C26.6639 14.0517 27.695 13.2861 28.7353 12.5533L29.0232 12.9621C30.0761 12.2205 31.1383 11.5128 32.2079 10.8391L31.9414 10.416C33.0381 9.72524 34.1425 9.06996 35.2524 8.45041L35.4961 8.887C36.6214 8.25882 37.7521 7.66771 38.8859 7.11387L38.6665 6.6646C39.8331 6.09474 41.0031 5.56396 42.1739 5.07251L42.3674 5.53354C43.5559 5.03469 44.7449 4.57675 45.9319 4.15995L45.7662 3.6882C46.9942 3.25698 48.2202 2.86936 49.4412 2.5256L49.5767 3.00689C50.8188 2.65721 52.0554 2.3534 53.2831 2.09572L53.1804 1.60638C54.4546 1.33896 55.7198 1.12067 56.9726 0.951821L57.0394 1.44734C58.3201 1.27472 59.5871 1.15437 60.8367 1.08653L60.8096 0.587264C62.1131 0.516487 63.3985 0.502204 64.6615 0.54479L64.6447 1.0445C65.9338 1.08798 67.1984 1.19139 68.434 1.35497L68.4996 0.859295C69.7932 1.03056 71.0563 1.26703 72.2838 1.56916L72.1643 2.05467C73.4101 2.36129 74.6175 2.7363 75.7813 3.17996L75.9594 2.71275C77.1723 3.17515 78.3397 3.71127 79.4555 4.32167L79.2155 4.76032C80.327 5.36836 81.3855 6.05106 82.3853 6.80885L82.6873 6.41039Z" stroke="#D7D7D7" stroke-dasharray="4 4"/>
<path d="M100.687 30.4104C101.708 31.1845 102.67 32.0358 103.566 32.965L103.206 33.312C103.64 33.7629 104.059 34.2325 104.461 34.7209C104.864 35.2093 105.244 35.7104 105.604 36.2234L106.013 35.9366C106.753 36.9938 107.405 38.1008 107.968 39.2514L107.52 39.4715C108.072 40.5979 108.539 41.7677 108.922 42.9752L109.399 42.8237C109.784 44.0359 110.086 45.2844 110.308 46.5634L109.815 46.6487C110.027 47.8759 110.164 49.1328 110.226 50.4143L110.726 50.3901C110.787 51.6527 110.777 52.9377 110.697 54.2401L110.198 54.2095C110.121 55.4535 109.98 56.7145 109.776 57.9881L110.27 58.0673C110.069 59.3151 109.809 60.5739 109.49 61.8397L109.005 61.7174C108.699 62.9307 108.338 64.1512 107.923 65.3751L108.396 65.5356C107.99 66.7328 107.533 67.9327 107.027 69.1319L106.566 68.9373C106.078 70.0929 105.543 71.2483 104.961 72.4003L105.408 72.6256C104.836 73.7581 104.221 74.887 103.562 76.0096L103.131 75.7565C102.494 76.8416 101.817 77.9208 101.099 78.9916L101.515 79.2699C100.808 80.3247 100.063 81.3713 99.2799 82.407L98.8811 82.1055C98.1201 83.1121 97.3232 84.1086 96.491 85.0926L96.8727 85.4155C96.0519 86.3859 95.1971 87.3442 94.3088 88.2882L93.9447 87.9456C93.0785 88.8661 92.1802 89.773 91.2505 90.6642L91.5965 91.0251C90.6779 91.9056 89.7289 92.7709 88.75 93.6188L88.4226 93.2409C87.9417 93.6574 87.4536 94.0698 86.9582 94.4778C86.4629 94.8857 85.9646 95.2858 85.4635 95.6779L85.7717 96.0716C84.7518 96.8698 83.7207 97.6354 82.6804 98.3682L82.3925 97.9594C81.3396 98.701 80.2773 99.4087 79.2078 100.082L79.4743 100.505C78.3776 101.196 77.2732 101.852 76.1633 102.471L75.9196 102.034C74.7943 102.663 73.6636 103.254 72.5297 103.808L72.7492 104.257C71.5826 104.827 70.4126 105.358 69.2418 105.849L69.0483 105.388C67.8598 105.887 66.6708 106.345 65.4838 106.762L65.6495 107.233C64.4215 107.665 63.1955 108.052 61.9744 108.396L61.839 107.915C60.5969 108.264 59.3603 108.568 58.1326 108.826L58.2353 109.315C56.9611 109.583 55.6959 109.801 54.4431 109.97L54.3763 109.474C53.0956 109.647 51.8286 109.767 50.579 109.835L50.6061 110.334C49.3026 110.405 48.0172 110.419 46.7542 110.377L46.771 109.877C45.4819 109.834 44.2172 109.73 42.9817 109.567L42.9161 110.062C41.6225 109.891 40.3594 109.654 39.1319 109.352L39.2514 108.867C38.0056 108.56 36.7982 108.185 35.6344 107.742L35.4563 108.209C34.2434 107.746 33.076 107.21 31.9602 106.6L32.2002 106.161C31.0887 105.553 30.0301 104.87 29.0304 104.113L28.7284 104.511C27.7072 103.737 26.7456 102.886 25.8499 101.957L26.2099 101.609C25.7753 101.159 25.3565 100.689 24.9542 100.201C24.552 99.7122 24.1714 99.2111 23.8122 98.6981L23.4026 98.9849C22.6624 97.9277 22.0111 96.8207 21.4472 95.6701L21.8962 95.45C21.3441 94.3236 20.877 93.1538 20.4933 91.9463L20.0168 92.0978C19.6316 90.8856 19.3292 89.6371 19.1079 88.3581L19.6006 88.2728C19.3883 87.0456 19.2517 85.7887 19.1896 84.5072L18.6902 84.5314C18.629 83.2688 18.639 81.9838 18.7189 80.6814L19.218 80.712C19.2943 79.468 19.4352 78.207 19.6397 76.9334L19.146 76.8542C19.3464 75.6064 19.6068 74.3476 19.9262 73.0818L20.411 73.2041C20.7171 71.9908 21.0781 70.7703 21.4931 69.5464L21.0195 69.3859C21.4254 68.1887 21.8822 66.9888 22.3889 65.7895L22.8495 65.9842C23.3378 64.8286 23.873 63.6732 24.4543 62.5212L24.0079 62.2959C24.5794 61.1634 25.1949 60.0345 25.8535 58.9119L26.2848 59.1649C26.9214 58.0799 27.5988 57.0007 28.3162 55.9299L27.9008 55.6516C28.6076 54.5967 29.3528 53.5502 30.1358 52.5145L30.5346 52.816C31.2956 51.8094 32.0925 50.8129 32.9247 49.8289L32.543 49.506C33.3638 48.5356 34.2186 47.5772 35.1069 46.6333L35.471 46.9759C36.3372 46.0554 37.2355 45.1485 38.1651 44.2573L37.8192 43.8964C38.7378 43.0158 39.6868 42.1506 40.6657 41.3027L40.9931 41.6806C41.4739 41.264 41.9621 40.8517 42.4575 40.4437C42.9528 40.0358 43.4511 39.6357 43.9521 39.2436L43.644 38.8498C44.6639 38.0517 45.695 37.2861 46.7353 36.5533L47.0232 36.9621C48.0761 36.2205 49.1383 35.5128 50.2079 34.8391L49.9414 34.416C51.0381 33.7252 52.1425 33.07 53.2524 32.4504L53.4961 32.887C54.6214 32.2588 55.7521 31.6677 56.8859 31.1139L56.6665 30.6646C57.8331 30.0947 59.0031 29.564 60.1739 29.0725L60.3674 29.5335C61.5559 29.0347 62.7449 28.5768 63.9319 28.16L63.7662 27.6882C64.9942 27.257 66.2202 26.8694 67.4412 26.5256L67.5767 27.0069C68.8188 26.6572 70.0554 26.3534 71.2831 26.0957L71.1804 25.6064C72.4546 25.339 73.7198 25.1207 74.9726 24.9518L75.0394 25.4473C76.3201 25.2747 77.5871 25.1544 78.8367 25.0865L78.8096 24.5873C80.1131 24.5165 81.3985 24.5022 82.6615 24.5448L82.6447 25.0445C83.9338 25.088 85.1984 25.1914 86.434 25.355L86.4996 24.8593C87.7932 25.0306 89.0563 25.267 90.2838 25.5692L90.1643 26.0547C91.4101 26.3613 92.6175 26.7363 93.7813 27.18L93.9594 26.7128C95.1723 27.1751 96.3397 27.7113 97.4555 28.3217L97.2155 28.7603C98.327 29.3684 99.3855 30.0511 100.385 30.8089L100.687 30.4104Z" stroke="#D7D7D7" stroke-dasharray="4 4"/>
</svg>
