<svg width="78" height="209" viewBox="0 0 78 209" fill="none" xmlns="http://www.w3.org/2000/svg">
<path d="M67.2002 32.3706C67.8095 33.5881 68.4028 34.8315 68.978 36.0989L68.5227 36.3055C68.8047 36.9269 69.0823 37.554 69.3554 38.1868C69.6285 38.8196 69.8944 39.4518 70.153 40.0832L70.6157 39.8937C71.1433 41.1816 71.6411 42.4662 72.109 43.7447L71.6395 43.9166C72.116 45.2185 72.5614 46.5141 72.9757 47.8005L73.4516 47.6472C73.8794 48.9755 74.2743 50.2942 74.6363 51.6004L74.1545 51.7339C74.5266 53.0763 74.8636 54.4051 75.1658 55.7169L75.653 55.6047C75.968 56.9722 76.2454 58.3218 76.4851 59.6497L75.993 59.7386C76.2416 61.1154 76.4494 62.4684 76.6166 63.7932L77.1126 63.7306C77.2895 65.1327 77.4213 66.5041 77.508 67.8399L77.009 67.8723C77.1002 69.2778 77.1411 70.6425 77.1318 71.9608L77.6318 71.9643C77.6218 73.393 77.5534 74.769 77.4268 76.0851L76.9291 76.0373C76.7927 77.4553 76.5882 78.8001 76.3164 80.0628L76.8052 80.1681C76.4991 81.5894 76.1084 82.9119 75.6331 84.123L75.1677 83.9404C74.6462 85.2693 74.0236 86.4529 73.3028 87.4771L73.7117 87.7649C72.8825 88.9433 71.9222 89.9264 70.831 90.6898L70.5444 90.2801C70.0068 90.6561 69.4366 90.9758 68.8334 91.2361C68.2302 91.4964 67.6064 91.6921 66.964 91.8253L67.0655 92.3148C65.7616 92.5851 64.3875 92.6095 62.9612 92.4045L63.0323 91.9096C61.7926 91.7315 60.5043 91.3725 59.1797 90.8404L58.9933 91.3044C57.786 90.8194 56.5557 90.1965 55.3116 89.4442L55.5703 89.0163C54.465 88.348 53.3462 87.5743 52.2209 86.7008L51.9143 87.0957C50.8698 86.285 49.8217 85.3909 48.7753 84.4181L49.1157 84.0519C48.1501 83.1543 47.1851 82.1885 46.225 81.158L45.8592 81.4988C44.9467 80.5194 44.0392 79.4828 43.1403 78.3923L43.5262 78.0742C42.6769 77.0438 41.835 75.9645 41.0036 74.8391L40.6015 75.1362C39.7997 74.0509 39.0079 72.9233 38.229 71.756L38.6449 71.4785C37.8976 70.3587 37.162 69.2019 36.4404 68.0104L36.0127 68.2694C35.3107 67.11 34.622 65.918 33.949 64.6956L34.387 64.4544C33.7352 63.2705 33.098 62.0577 32.4776 60.8179L32.0304 61.0417C31.4211 59.8242 30.8279 58.5808 30.2527 57.3134L30.708 57.1067C30.426 56.4854 30.1483 55.8582 29.8752 55.2255C29.6022 54.5927 29.3363 53.9605 29.0776 53.3291L28.6149 53.5186C28.0873 52.2306 27.5896 50.9461 27.1216 49.6675L27.5912 49.4957C27.1147 48.1937 26.6693 46.8982 26.255 45.6118L25.779 45.7651C25.3512 44.4368 24.9563 43.118 24.5943 41.8119L25.0761 41.6783C24.7041 40.336 24.367 39.0072 24.0649 37.6953L23.5776 37.8076C23.2626 36.44 22.9853 35.0904 22.7456 33.7625L23.2376 33.6737C22.989 32.2968 22.7812 30.9439 22.6141 29.619L22.118 29.6816C21.9411 28.2796 21.8094 26.9082 21.7227 25.5723L22.2216 25.5399C22.1304 24.1344 22.0896 22.7697 22.0988 21.4515L21.5989 21.4479C21.6089 20.0192 21.6773 18.6432 21.8038 17.3271L22.3015 17.375C22.4379 15.9569 22.6424 14.6121 22.9143 13.3494L22.4255 13.2442C22.7315 11.8229 23.1223 10.5004 23.5976 9.28921L24.063 9.47186C24.5845 8.14301 25.2071 6.9594 25.9278 5.93513L25.5189 5.64739C26.3481 4.469 27.3085 3.48587 28.3996 2.7225L28.6863 3.13219C29.2238 2.75611 29.7941 2.4365 30.3973 2.17618C31.0005 1.91585 31.6242 1.72016 32.2666 1.587L32.1651 1.09741C33.4691 0.827113 34.8432 0.80273 36.2695 1.00771L36.1983 1.50263C37.438 1.6808 38.7263 2.03972 40.051 2.57185L40.2373 2.10788C41.4446 2.59287 42.675 3.21578 43.9191 3.96808L43.6604 4.39593C44.7656 5.0643 45.8844 5.83799 47.0098 6.71151L47.3164 6.31653C48.3608 7.12724 49.4089 8.0214 50.4554 8.99415L50.115 9.36037C51.0805 10.2579 52.0455 11.2238 53.0056 12.2543L53.3715 11.9135C54.284 12.8929 55.1915 13.9295 56.0903 15.02L55.7045 15.338C56.5538 16.3684 57.3957 17.4477 58.227 18.5731L58.6292 18.276C59.431 19.3614 60.2227 20.4889 61.0017 21.6562L60.5858 21.9338C61.3331 23.0536 62.0687 24.2103 62.7902 25.4018L63.2179 25.1429C63.92 26.3023 64.6086 27.4942 65.2817 28.7167L64.8437 28.9578C65.4955 30.1417 66.1326 31.3545 66.7531 32.5944L67.2002 32.3706Z" stroke="#D7D7D7" stroke-dasharray="4 4"/>
<path d="M43.8503 43.0558C44.1011 44.3939 44.3294 45.7525 44.5338 47.1293L44.0392 47.2027C44.1394 47.8776 44.2338 48.557 44.3223 49.2405C44.4108 49.9239 44.4924 50.6049 44.5674 51.2831L45.0644 51.2282C45.2173 52.6116 45.3425 53.9835 45.4407 55.3415L44.942 55.3775C45.0419 56.7603 45.1137 58.1284 45.1582 59.4791L45.6579 59.4627C45.7038 60.8574 45.7207 62.2339 45.7094 63.5893L45.2094 63.5851C45.1978 64.978 45.1563 66.3483 45.086 67.6926L45.5853 67.7188C45.5119 69.1202 45.4073 70.494 45.2724 71.8366L44.775 71.7867C44.6352 73.1788 44.4628 74.5367 44.259 75.8564L44.7531 75.9327C44.5375 77.3294 44.2869 78.6841 44.0028 79.9922L43.5142 79.8861C43.2152 81.2625 42.879 82.5858 42.5075 83.8506L42.9872 83.9915C42.5845 85.3624 42.1402 86.6665 41.6565 87.897L41.1912 87.714C40.67 89.0399 40.1034 90.2765 39.4946 91.4157L39.9356 91.6514C39.2504 92.9336 38.5109 94.0976 37.7208 95.1313L37.3235 94.8276C36.4566 95.9618 35.5325 96.9284 34.5577 97.7149L34.8717 98.104C33.7503 99.0088 32.5565 99.6898 31.2975 100.124L31.1346 99.6509C30.5143 99.8646 29.8782 100.015 29.2266 100.099C28.5751 100.184 27.9216 100.2 27.2673 100.151L27.2302 100.65C25.9022 100.551 24.5744 100.197 23.2596 99.6072L23.4641 99.151C22.3213 98.6387 21.1814 97.9392 20.0543 97.0632L19.7474 97.458C18.7202 96.6596 17.7086 95.7222 16.7195 94.6567L17.0859 94.3165C16.2072 93.3699 15.3444 92.3183 14.5027 91.1689L14.0993 91.4643C13.3182 90.3975 12.5565 89.2495 11.818 88.0264L12.2461 87.768C11.5647 86.6395 10.9026 85.4454 10.2631 84.1905L9.81758 84.4176C9.20969 83.2249 8.6224 81.9786 8.05824 80.6829L8.51667 80.4833C7.98359 79.259 7.4711 77.9898 6.98142 76.6791L6.51305 76.8541C6.04079 75.5901 5.58978 74.2882 5.16197 72.9516L5.63817 72.7992C5.22778 71.5171 4.83877 70.2026 4.47287 68.8585L3.99043 68.9899C3.6344 67.6821 3.30021 66.3466 2.98944 64.9862L3.47688 64.8748C3.17591 63.5573 2.89698 62.216 2.64153 60.8534L2.15009 60.9455C1.89924 59.6073 1.67096 58.2487 1.46659 56.872L1.96117 56.7986C1.86099 56.1236 1.76658 55.4443 1.6781 54.7608C1.58962 54.0773 1.50794 53.3963 1.43296 52.7181L0.935986 52.7731C0.783036 51.3896 0.657855 50.0177 0.559695 48.6598L1.05839 48.6238C0.958435 47.241 0.886637 45.8729 0.842194 44.5221L0.342464 44.5386C0.296573 43.1438 0.2797 41.7673 0.290978 40.412L0.790961 40.4161C0.802552 39.0232 0.844028 37.653 0.914414 36.3086L0.415097 36.2825C0.488471 34.881 0.593102 33.5072 0.727926 32.1646L1.22542 32.2146C1.36522 30.8224 1.53762 29.4645 1.74138 28.1448L1.24723 28.0685C1.46286 26.6719 1.71345 25.3172 1.9976 24.009L2.48621 24.1152C2.78517 22.7388 3.12133 21.4155 3.4929 20.1507L3.01317 20.0097C3.41587 18.6389 3.86013 17.3348 4.34387 16.1043L4.80921 16.2872C5.33042 14.9614 5.89699 13.7248 6.50575 12.5856L6.06476 12.3499C6.74997 11.0676 7.48947 9.90363 8.2796 8.86996L8.67684 9.17361C9.54376 8.03948 10.4679 7.07281 11.4426 6.28635L11.1287 5.89722C12.2501 4.99241 13.4438 4.31141 14.7029 3.87766L14.8657 4.3504C15.486 4.13671 16.1222 3.98631 16.7737 3.90196C17.4253 3.81762 18.0788 3.80107 18.733 3.84977L18.7702 3.35115C20.0981 3.45 21.426 3.80458 22.7408 4.39401L22.5363 4.85026C23.6791 5.3626 24.819 6.06209 25.9461 6.93808L26.2529 6.54329C27.2802 7.34169 28.2917 8.27903 29.2809 9.34455L28.9144 9.68472C29.7932 10.6314 30.656 11.683 31.4976 12.8324L31.901 12.537C32.6822 13.6037 33.4438 14.7517 34.1823 15.9748L33.7543 16.2333C34.4357 17.3618 35.0977 18.5559 35.7373 19.8107L36.1828 19.5837C36.7907 20.7764 37.378 22.0226 37.9421 23.3183L37.4837 23.5179C38.0168 24.7422 38.5293 26.0115 39.019 27.3222L39.4873 27.1472C39.9596 28.4112 40.4106 29.7131 40.8384 31.0496L40.3622 31.2021C40.7726 32.4842 41.1616 33.7987 41.5275 35.1427L42.0099 35.0114C42.366 36.3192 42.7002 37.6546 43.0109 39.0151L42.5235 39.1264C42.8245 40.444 43.1034 41.7852 43.3588 43.1479L43.8503 43.0558Z" stroke="#D7D7D7" stroke-dasharray="4 4"/>
<path d="M54.9278 118.835C54.504 120.129 54.0507 121.429 53.5676 122.735L53.0987 122.561C52.8619 123.201 52.6179 123.842 52.3667 124.484C52.1156 125.126 51.8596 125.762 51.5991 126.393L52.0613 126.584C51.5299 127.87 50.9798 129.133 50.4127 130.371L49.9581 130.162C49.3806 131.423 48.7855 132.657 48.1748 133.862L48.6208 134.088C47.9902 135.333 47.3429 136.548 46.681 137.731L46.2447 137.487C45.5645 138.703 44.8691 139.884 44.1608 141.029L44.5859 141.292C43.8475 142.485 43.095 143.639 42.331 144.751L41.9188 144.468C41.1267 145.622 40.3223 146.729 39.5089 147.788L39.9055 148.093C39.0446 149.214 38.1733 150.281 37.295 151.291L36.9176 150.963C35.9935 152.026 35.0623 153.024 34.1281 153.954L34.4809 154.309C33.4685 155.317 32.4517 156.247 31.4358 157.093L31.1158 156.708C30.0211 157.62 28.9296 158.432 27.8479 159.138L28.1212 159.556C26.9036 160.351 25.6954 161.016 24.5055 161.542L24.3033 161.085C22.9977 161.662 21.7225 162.065 20.4897 162.286L20.5778 162.778C19.1594 163.032 17.7852 163.055 16.4728 162.829L16.5574 162.336C15.9108 162.225 15.2807 162.051 14.6689 161.812C14.0571 161.572 13.4762 161.273 12.926 160.915L12.6537 161.334C11.5369 160.609 10.5434 159.66 9.67415 158.51L10.0729 158.209C9.31739 157.21 8.65452 156.048 8.08769 154.738L7.6288 154.937C7.11218 153.743 6.67623 152.434 6.32155 151.024L6.80644 150.902C6.49134 149.65 6.24075 148.313 6.05573 146.9L5.55997 146.965C5.38825 145.654 5.27265 144.281 5.21352 142.854L5.71309 142.833C5.65853 141.516 5.65246 140.151 5.69532 138.743L5.19555 138.728C5.23628 137.39 5.32085 136.014 5.44947 134.607L5.94739 134.653C6.06893 133.323 6.23013 131.964 6.43124 130.579L5.93644 130.507C6.1304 129.172 6.3612 127.813 6.62902 126.436L7.11983 126.531C7.37674 125.21 7.66796 123.87 7.99366 122.516L7.50752 122.399C7.82444 121.081 8.17379 119.75 8.55571 118.407L9.03662 118.544C9.40649 117.244 9.8071 115.934 10.2386 114.617L9.76342 114.461C10.1872 113.167 10.6405 111.866 11.1235 110.561L11.5925 110.735C11.8293 110.095 12.0733 109.454 12.3245 108.812C12.5756 108.17 12.8316 107.534 13.0921 106.903L12.6299 106.712C13.1613 105.426 13.7114 104.163 14.2785 102.925L14.7331 103.133C15.3106 101.873 15.9057 100.639 16.5164 99.4333L16.0704 99.2073C16.701 97.9625 17.3483 96.7475 18.0102 95.5647L18.4465 95.8088C19.1267 94.5932 19.8221 93.4119 20.5304 92.2671L20.1053 92.004C20.8437 90.8106 21.5962 89.6565 22.3602 88.5443L22.7724 88.8274C23.5645 87.6741 24.3688 86.5665 25.1823 85.5075L24.7857 85.2029C25.6466 84.0822 26.5179 83.015 27.3962 82.0048L27.7736 82.3329C28.6977 81.27 29.6289 80.2715 30.5631 79.3413L30.2103 78.987C31.2227 77.9789 32.2395 77.0493 33.2554 76.2031L33.5754 76.5873C34.6701 75.6757 35.7616 74.864 36.8433 74.1581L36.57 73.7393C37.7876 72.9447 38.9958 72.2799 40.1857 71.7537L40.3879 72.211C41.6935 71.6337 42.9687 71.2307 44.2015 71.0101L44.1134 70.5179C45.5318 70.264 46.906 70.2412 48.2184 70.4665L48.1338 70.9593C48.7804 71.0703 49.4105 71.2445 50.0223 71.4839C50.6341 71.7233 51.215 72.0232 51.7651 72.3806L52.0375 71.9613C53.1543 72.6867 54.1478 73.6362 55.0171 74.7855L54.6183 75.0871C55.3738 76.086 56.0367 77.2475 56.6035 78.5576L57.0624 78.3591C57.579 79.5532 58.015 80.8615 58.3696 82.2715L57.8848 82.3935C58.1999 83.6461 58.4504 84.9831 58.6355 86.3956L59.1312 86.3306C59.3029 87.6416 59.4185 89.0144 59.4777 90.442L58.9781 90.4627C59.0327 91.7798 59.0387 93.1452 58.9959 94.553L59.4957 94.5682C59.4549 95.9062 59.3704 97.2813 59.2417 98.6886L58.7438 98.6431C58.6223 99.9729 58.4611 101.332 58.26 102.717L58.7548 102.789C58.5608 104.124 58.33 105.482 58.0622 106.86L57.5714 106.765C57.3145 108.086 57.0232 109.426 56.6975 110.78L57.1837 110.897C56.8668 112.215 56.5174 113.546 56.1355 114.888L55.6546 114.752C55.2847 116.051 54.8841 117.362 54.4526 118.679L54.9278 118.835Z" stroke="#D7D7D7" stroke-dasharray="4 4"/>
<path d="M68.5953 148.911C69.0741 150.186 69.5342 151.484 69.9738 152.805L69.4994 152.963C69.7149 153.61 69.9256 154.263 70.131 154.921C70.3365 155.579 70.5349 156.235 70.7262 156.89L71.2061 156.75C71.5963 158.086 71.9571 159.416 72.2889 160.736L71.804 160.858C72.1419 162.203 72.4494 163.538 72.7271 164.86L73.2164 164.757C73.5031 166.123 73.7581 167.476 73.9816 168.813L73.4885 168.895C73.7182 170.269 73.9146 171.626 74.0781 172.962L74.5744 172.901C74.7448 174.294 74.8796 175.666 74.9793 177.011L74.4806 177.048C74.584 178.444 74.6493 179.811 74.6771 181.146L75.177 181.135C75.2065 182.548 75.1942 183.926 75.1409 185.264L74.6413 185.244C74.5851 186.651 74.4832 188.012 74.3362 189.323L74.8331 189.378C74.6738 190.798 74.4621 192.159 74.1987 193.455L73.7087 193.355C73.4249 194.752 73.081 196.068 72.6787 197.295L73.1539 197.451C72.701 198.832 72.1742 200.107 71.575 201.262L71.1312 201.031C70.4737 202.298 69.7309 203.411 68.9071 204.354L69.2837 204.683C68.3359 205.768 67.278 206.645 66.1131 207.291L65.8709 206.853C65.2969 207.171 64.6964 207.429 64.0693 207.625C63.4422 207.821 62.8015 207.951 62.1487 208.016L62.1984 208.513C60.8734 208.646 59.5042 208.527 58.1072 208.174L58.2296 207.689C57.0153 207.382 55.7716 206.891 54.5098 206.223L54.276 206.665C53.126 206.057 51.9674 205.309 50.8087 204.43L51.1108 204.032C50.0813 203.252 49.0495 202.365 48.0216 201.379L47.6754 201.74C46.7214 200.825 45.7724 199.826 44.8333 198.749L45.2101 198.42C44.3436 197.427 43.4848 196.365 42.6377 195.24L42.2382 195.541C41.433 194.472 40.6388 193.346 39.8588 192.167L40.2758 191.891C39.5388 190.778 38.8142 189.617 38.105 188.41L37.674 188.664C36.99 187.501 36.3204 186.297 35.6677 185.054L36.1103 184.822C35.4841 183.63 34.8734 182.403 34.2803 181.142L33.8279 181.355C33.2508 180.129 32.6904 178.871 32.1488 177.585L32.6096 177.391C32.085 176.146 31.5781 174.873 31.0905 173.575L30.6225 173.751C30.1437 172.476 29.6836 171.178 29.244 169.857L29.7184 169.699C29.5029 169.052 29.2922 168.399 29.0868 167.741C28.8813 167.084 28.6829 166.427 28.4916 165.772L28.0117 165.912C27.6215 164.576 27.2607 163.247 26.9289 161.926L27.4138 161.804C27.0759 160.46 26.7684 159.125 26.4907 157.802L26.0014 157.905C25.7147 156.539 25.4597 155.186 25.2362 153.85L25.7293 153.767C25.4996 152.393 25.3032 151.036 25.1397 149.7L24.6434 149.761C24.473 148.368 24.3382 146.997 24.2385 145.651L24.7372 145.614C24.6338 144.219 24.5685 142.852 24.5407 141.517L24.0408 141.527C24.0113 140.114 24.0236 138.736 24.0769 137.399L24.5765 137.419C24.6327 136.011 24.7346 134.65 24.8816 133.34L24.3847 133.284C24.544 131.864 24.7557 130.503 25.0191 129.207L25.5091 129.307C25.7929 127.911 26.1368 126.595 26.5391 125.367L26.064 125.212C26.5168 123.83 27.0436 122.556 27.6428 121.401L28.0866 121.631C28.7441 120.364 29.4869 119.252 30.3107 118.308L29.9341 117.98C30.8819 116.894 31.9398 116.017 33.1047 115.372L33.3469 115.809C33.9209 115.491 34.5214 115.233 35.1485 115.037C35.7756 114.841 36.4163 114.712 37.0691 114.646L37.0194 114.149C38.3444 114.016 39.7136 114.136 41.1106 114.488L40.9882 114.973C42.2025 115.28 43.4462 115.772 44.708 116.439L44.9418 115.997C46.0918 116.606 47.2504 117.354 48.4091 118.232L48.1071 118.63C49.1365 119.411 50.1683 120.297 51.1962 121.283L51.5424 120.922C52.4964 121.838 53.4454 122.837 54.3845 123.913L54.0077 124.242C54.8742 125.236 55.733 126.297 56.5802 127.422L56.9796 127.121C57.7848 128.191 58.579 129.317 59.359 130.495L58.942 130.771C59.6791 131.884 60.4036 133.046 61.1128 134.252L61.5438 133.998C62.2278 135.162 62.8974 136.366 63.5501 137.608L63.1075 137.841C63.7337 139.032 64.3445 140.26 64.9375 141.52L65.39 141.307C65.967 142.533 66.5274 143.791 67.069 145.077L66.6082 145.271C67.1328 146.517 67.6397 147.789 68.1273 149.087L68.5953 148.911Z" stroke="#D7D7D7" stroke-dasharray="4 4"/>
</svg>
