<svg width="154" height="123" viewBox="0 0 154 123" fill="none" xmlns="http://www.w3.org/2000/svg">
<path d="M58.619 8.40766C60.0323 8.20545 61.3962 8.22398 62.6959 8.47807L62.6 8.96878C63.2399 9.09389 63.8628 9.27873 64.4672 9.52517C65.0715 9.77162 65.646 10.0751 66.191 10.4331L66.4655 10.0153C67.5723 10.7425 68.5603 11.6831 69.4291 12.8159L69.0324 13.1202C69.7904 14.1085 70.459 15.2543 71.0356 16.5457L71.4922 16.3419C72.0185 17.5208 72.4674 18.8121 72.8384 20.2049L72.3553 20.3336C72.6849 21.5709 72.953 22.8924 73.1587 24.2905L73.6533 24.2177C73.8443 25.5161 73.9819 26.8773 74.0658 28.295L73.5667 28.3246C73.644 29.63 73.6755 30.985 73.6609 32.3846L74.1609 32.3898C74.1471 33.7162 74.0923 35.0813 73.9964 36.481L73.4976 36.4468C73.4071 37.7674 73.2798 39.1196 73.1155 40.4997L73.612 40.5588C73.4538 41.8878 73.2615 43.242 73.0352 44.6183L72.5419 44.5372C72.3255 45.8531 72.0778 47.1897 71.7986 48.5441L72.2884 48.645C72.0171 49.9609 71.7165 51.2934 71.3863 52.6397L70.9007 52.5207C70.5811 53.8239 70.2336 55.1404 69.8584 56.4679L70.3395 56.6039C69.9729 57.901 69.5798 59.2084 69.1602 60.5239L68.6838 60.372C68.2748 61.6546 67.8404 62.9451 67.3807 64.2415L67.8519 64.4086C67.4 65.683 66.9238 66.9629 66.4231 68.2465L65.9573 68.0649C65.7108 68.697 65.4583 69.33 65.1999 69.9637C64.9415 70.5974 64.6793 71.2265 64.4135 71.8507L64.8735 72.0466C64.3338 73.3143 63.7792 74.5622 63.2111 75.7892L62.7573 75.5791C62.1794 76.8273 61.5875 78.0536 60.983 79.2565L61.4297 79.481C60.8097 80.7148 60.1765 81.9243 59.5316 83.1078L59.0925 82.8686C58.4324 84.08 57.7601 85.264 57.0773 86.4191L57.5077 86.6736C56.8022 87.8669 56.0854 89.0296 55.3591 90.16L54.9384 89.8896C54.1909 91.053 53.4333 92.1817 52.6677 93.2737L53.0772 93.5607C52.2764 94.7028 51.4669 95.8053 50.6506 96.8659L50.2544 96.5609C49.4067 97.6624 48.5522 98.718 47.6934 99.7253L48.0739 100.05C47.1636 101.117 46.2482 102.131 45.3305 103.089L44.9695 102.743C44.0011 103.754 43.0311 104.701 42.063 105.58L42.3991 105.95C41.3477 106.905 40.2975 107.781 39.2531 108.576L38.9503 108.178C37.8256 109.034 36.7099 109.791 35.609 110.445L35.8644 110.875C34.6252 111.611 33.4013 112.22 32.2007 112.695L32.0169 112.23C30.7016 112.75 29.4224 113.101 28.1894 113.278L28.2602 113.773C26.847 113.975 25.483 113.956 24.1833 113.702L24.2792 113.211C23.6393 113.086 23.0164 112.902 22.4121 112.655C21.8077 112.409 21.2332 112.105 20.6883 111.747L20.4137 112.165C19.3069 111.438 18.319 110.497 17.4501 109.364L17.8469 109.06C17.0888 108.072 16.4202 106.926 15.8436 105.634L15.3871 105.838C14.8607 104.659 14.4119 103.368 14.0408 101.975L14.5239 101.847C14.1943 100.609 13.9263 99.2878 13.7206 97.8897L13.2259 97.9625C13.0349 96.6641 12.8974 95.3029 12.8134 93.8852L13.3126 93.8557C13.2353 92.5502 13.2038 91.1952 13.2183 89.7956L12.7183 89.7904C12.7321 88.464 12.7869 87.0989 12.8828 85.6992L13.3816 85.7334C13.4721 84.4128 13.5994 83.0606 13.7637 81.6805L13.2672 81.6214C13.4255 80.2925 13.6177 78.9383 13.844 77.5619L14.3374 77.643C14.5537 76.3271 14.8014 74.9905 15.0806 73.6361L14.5909 73.5352C14.8621 72.2193 15.1628 70.8869 15.493 69.5405L15.9786 69.6596C16.2982 68.3564 16.6456 67.0398 17.0208 65.7123L16.5397 65.5763C16.9064 64.2792 17.2995 62.9719 17.719 61.6563L18.1954 61.8083C18.6045 60.5256 19.0388 59.2351 19.4986 57.9387L19.0273 57.7716C19.4792 56.4973 19.9554 55.2173 20.4561 53.9337L20.9219 54.1154C21.1684 53.4833 21.4209 52.8502 21.6793 52.2165C21.9378 51.5828 22.1999 50.9538 22.4657 50.3295L22.0057 50.1336C22.5455 48.866 23.1001 47.618 23.6682 46.3911L24.1219 46.6011C24.6998 45.3529 25.2918 44.1267 25.8963 42.9237L25.4495 42.6992C26.0695 41.4654 26.7027 40.256 27.3477 39.0724L27.7867 39.3116C28.4468 38.1002 29.1191 36.9162 29.8019 35.7611L29.3715 35.5067C30.077 34.3133 30.7938 33.1506 31.5201 32.0203L31.9408 32.2906C32.6884 31.1272 33.4459 29.9985 34.2115 28.9066L33.8021 28.6195C34.6028 27.4774 35.4124 26.3749 36.2286 25.3143L36.6248 25.6193C37.4725 24.5178 38.327 23.4622 39.1858 22.4549L38.8054 22.1305C39.7156 21.0629 40.631 20.0488 41.5487 19.091L41.9097 19.4369C42.8781 18.4262 43.8481 17.4796 44.8163 16.6005L44.4801 16.2303C45.5315 15.2756 46.5817 14.3987 47.6262 13.6042L47.9289 14.0021C49.0536 13.1466 50.1693 12.3893 51.2702 11.7354L51.0149 11.3055C52.2541 10.5694 53.4779 9.96011 54.6786 9.4855L54.8624 9.95049C56.1776 9.43056 57.4568 9.07904 58.6898 8.90262L58.619 8.40766Z" stroke="black" stroke-opacity="0.25" stroke-dasharray="4 4"/>
<path d="M91.619 8.40766C93.0323 8.20545 94.3962 8.22398 95.6959 8.47807L95.6 8.96878C96.2399 9.09389 96.8628 9.27873 97.4672 9.52517C98.0715 9.77162 98.646 10.0751 99.191 10.4331L99.4655 10.0153C100.572 10.7425 101.56 11.6831 102.429 12.8159L102.032 13.1202C102.79 14.1085 103.459 15.2543 104.036 16.5457L104.492 16.3419C105.019 17.5208 105.467 18.8121 105.838 20.2049L105.355 20.3336C105.685 21.5709 105.953 22.8924 106.159 24.2905L106.653 24.2177C106.844 25.5161 106.982 26.8773 107.066 28.295L106.567 28.3246C106.644 29.63 106.675 30.985 106.661 32.3846L107.161 32.3898C107.147 33.7162 107.092 35.0813 106.996 36.481L106.498 36.4468C106.407 37.7674 106.28 39.1196 106.115 40.4997L106.612 40.5588C106.454 41.8878 106.262 43.242 106.035 44.6183L105.542 44.5372C105.326 45.8531 105.078 47.1897 104.799 48.5441L105.288 48.645C105.017 49.9609 104.716 51.2934 104.386 52.6397L103.901 52.5207C103.581 53.8239 103.234 55.1404 102.858 56.4679L103.34 56.6039C102.973 57.901 102.58 59.2084 102.16 60.5239L101.684 60.372C101.275 61.6546 100.84 62.9451 100.381 64.2415L100.852 64.4086C100.4 65.683 99.9238 66.9629 99.4231 68.2465L98.9573 68.0649C98.7108 68.697 98.4583 69.33 98.1999 69.9637C97.9415 70.5974 97.6793 71.2265 97.4135 71.8507L97.8735 72.0466C97.3338 73.3143 96.7792 74.5622 96.2111 75.7892L95.7573 75.5791C95.1794 76.8273 94.5875 78.0536 93.983 79.2565L94.4297 79.481C93.8097 80.7148 93.1765 81.9243 92.5316 83.1078L92.0925 82.8686C91.4324 84.08 90.7601 85.264 90.0773 86.4191L90.5077 86.6736C89.8022 87.8669 89.0854 89.0296 88.3591 90.16L87.9384 89.8896C87.1909 91.053 86.4333 92.1817 85.6677 93.2737L86.0772 93.5607C85.2764 94.7028 84.4669 95.8053 83.6506 96.8659L83.2544 96.5609C82.4067 97.6624 81.5522 98.718 80.6934 99.7253L81.0739 100.05C80.1636 101.117 79.2482 102.131 78.3305 103.089L77.9695 102.743C77.0011 103.754 76.0311 104.701 75.063 105.58L75.3991 105.95C74.3477 106.905 73.2975 107.781 72.2531 108.576L71.9503 108.178C70.8256 109.034 69.7099 109.791 68.609 110.445L68.8644 110.875C67.6252 111.611 66.4013 112.22 65.2007 112.695L65.0169 112.23C63.7016 112.75 62.4224 113.101 61.1894 113.278L61.2602 113.773C59.847 113.975 58.483 113.956 57.1833 113.702L57.2792 113.211C56.6393 113.086 56.0164 112.902 55.4121 112.655C54.8077 112.409 54.2332 112.105 53.6883 111.747L53.4137 112.165C52.3069 111.438 51.319 110.497 50.4501 109.364L50.8469 109.06C50.0888 108.072 49.4202 106.926 48.8436 105.634L48.3871 105.838C47.8607 104.659 47.4119 103.368 47.0408 101.975L47.5239 101.847C47.1943 100.609 46.9263 99.2878 46.7206 97.8897L46.2259 97.9625C46.0349 96.6641 45.8974 95.3029 45.8134 93.8852L46.3126 93.8557C46.2353 92.5502 46.2038 91.1952 46.2183 89.7956L45.7183 89.7904C45.7321 88.464 45.7869 87.0989 45.8828 85.6992L46.3816 85.7334C46.4721 84.4128 46.5994 83.0606 46.7637 81.6805L46.2672 81.6214C46.4255 80.2925 46.6177 78.9383 46.844 77.5619L47.3374 77.643C47.5537 76.3271 47.8014 74.9905 48.0806 73.6361L47.5909 73.5352C47.8621 72.2193 48.1628 70.8869 48.493 69.5405L48.9786 69.6596C49.2982 68.3564 49.6456 67.0398 50.0208 65.7123L49.5397 65.5763C49.9064 64.2792 50.2995 62.9719 50.719 61.6563L51.1954 61.8083C51.6045 60.5256 52.0388 59.2351 52.4986 57.9387L52.0273 57.7716C52.4792 56.4973 52.9554 55.2173 53.4561 53.9337L53.9219 54.1154C54.1684 53.4833 54.4209 52.8502 54.6793 52.2165C54.9378 51.5828 55.1999 50.9538 55.4657 50.3295L55.0057 50.1336C55.5455 48.866 56.1001 47.618 56.6682 46.3911L57.1219 46.6011C57.6998 45.3529 58.2918 44.1267 58.8963 42.9237L58.4495 42.6992C59.0695 41.4654 59.7027 40.256 60.3477 39.0724L60.7867 39.3116C61.4468 38.1002 62.1191 36.9162 62.8019 35.7611L62.3715 35.5067C63.077 34.3133 63.7938 33.1506 64.5201 32.0203L64.9408 32.2906C65.6884 31.1272 66.4459 29.9985 67.2115 28.9066L66.8021 28.6195C67.6028 27.4774 68.4124 26.3749 69.2286 25.3143L69.6248 25.6193C70.4725 24.5178 71.327 23.4622 72.1858 22.4549L71.8054 22.1305C72.7156 21.0629 73.631 20.0488 74.5487 19.091L74.9097 19.4369C75.8781 18.4262 76.8481 17.4796 77.8163 16.6005L77.4801 16.2303C78.5315 15.2756 79.5817 14.3987 80.6262 13.6042L80.9289 14.0021C82.0536 13.1466 83.1693 12.3893 84.2702 11.7354L84.0149 11.3055C85.2541 10.5694 86.4779 9.96011 87.6786 9.4855L87.8624 9.95049C89.1776 9.43056 90.4568 9.07904 91.6898 8.90262L91.619 8.40766Z" stroke="black" stroke-opacity="0.25" stroke-dasharray="4 4"/>
<path d="M125.619 8.40766C127.032 8.20545 128.396 8.22398 129.696 8.47807L129.6 8.96878C130.24 9.09389 130.863 9.27873 131.467 9.52517C132.072 9.77162 132.646 10.0751 133.191 10.4331L133.466 10.0153C134.572 10.7425 135.56 11.6831 136.429 12.8159L136.032 13.1202C136.79 14.1085 137.459 15.2543 138.036 16.5457L138.492 16.3419C139.019 17.5208 139.467 18.8121 139.838 20.2049L139.355 20.3336C139.685 21.5709 139.953 22.8924 140.159 24.2905L140.653 24.2177C140.844 25.5161 140.982 26.8773 141.066 28.295L140.567 28.3246C140.644 29.63 140.675 30.985 140.661 32.3846L141.161 32.3898C141.147 33.7162 141.092 35.0813 140.996 36.481L140.498 36.4468C140.407 37.7674 140.28 39.1196 140.115 40.4997L140.612 40.5588C140.454 41.8878 140.262 43.242 140.035 44.6183L139.542 44.5372C139.326 45.8531 139.078 47.1897 138.799 48.5441L139.288 48.645C139.017 49.9609 138.716 51.2934 138.386 52.6397L137.901 52.5207C137.581 53.8239 137.234 55.1404 136.858 56.4679L137.34 56.6039C136.973 57.901 136.58 59.2084 136.16 60.5239L135.684 60.372C135.275 61.6546 134.84 62.9451 134.381 64.2415L134.852 64.4086C134.4 65.683 133.924 66.9629 133.423 68.2465L132.957 68.0649C132.711 68.697 132.458 69.33 132.2 69.9637C131.941 70.5974 131.679 71.2265 131.413 71.8507L131.874 72.0466C131.334 73.3143 130.779 74.5622 130.211 75.7892L129.757 75.5791C129.179 76.8273 128.587 78.0536 127.983 79.2565L128.43 79.481C127.81 80.7148 127.176 81.9243 126.532 83.1078L126.093 82.8686C125.432 84.08 124.76 85.264 124.077 86.4191L124.508 86.6736C123.802 87.8669 123.085 89.0296 122.359 90.16L121.938 89.8896C121.191 91.053 120.433 92.1817 119.668 93.2737L120.077 93.5607C119.276 94.7028 118.467 95.8053 117.651 96.8659L117.254 96.5609C116.407 97.6624 115.552 98.718 114.693 99.7253L115.074 100.05C114.164 101.117 113.248 102.131 112.331 103.089L111.969 102.743C111.001 103.754 110.031 104.701 109.063 105.58L109.399 105.95C108.348 106.905 107.298 107.781 106.253 108.576L105.95 108.178C104.826 109.034 103.71 109.791 102.609 110.445L102.864 110.875C101.625 111.611 100.401 112.22 99.2007 112.695L99.0169 112.23C97.7016 112.75 96.4224 113.101 95.1894 113.278L95.2602 113.773C93.847 113.975 92.483 113.956 91.1833 113.702L91.2792 113.211C90.6393 113.086 90.0164 112.902 89.4121 112.655C88.8077 112.409 88.2332 112.105 87.6883 111.747L87.4137 112.165C86.3069 111.438 85.319 110.497 84.4501 109.364L84.8469 109.06C84.0888 108.072 83.4202 106.926 82.8436 105.634L82.3871 105.838C81.8607 104.659 81.4119 103.368 81.0408 101.975L81.5239 101.847C81.1943 100.609 80.9263 99.2878 80.7206 97.8897L80.2259 97.9625C80.0349 96.6641 79.8974 95.3029 79.8134 93.8852L80.3126 93.8557C80.2353 92.5502 80.2038 91.1952 80.2183 89.7956L79.7183 89.7904C79.7321 88.464 79.7869 87.0989 79.8828 85.6992L80.3816 85.7334C80.4721 84.4128 80.5994 83.0606 80.7637 81.6805L80.2672 81.6214C80.4255 80.2925 80.6177 78.9383 80.844 77.5619L81.3374 77.643C81.5537 76.3271 81.8014 74.9905 82.0806 73.6361L81.5909 73.5352C81.8621 72.2193 82.1628 70.8869 82.493 69.5405L82.9786 69.6596C83.2982 68.3564 83.6456 67.0398 84.0208 65.7123L83.5397 65.5763C83.9064 64.2792 84.2995 62.9719 84.719 61.6563L85.1954 61.8083C85.6045 60.5256 86.0388 59.2351 86.4986 57.9387L86.0273 57.7716C86.4792 56.4973 86.9554 55.2173 87.4561 53.9337L87.9219 54.1154C88.1684 53.4833 88.4209 52.8502 88.6793 52.2165C88.9378 51.5828 89.1999 50.9538 89.4657 50.3295L89.0057 50.1336C89.5455 48.866 90.1001 47.618 90.6682 46.3911L91.1219 46.6011C91.6998 45.3529 92.2918 44.1267 92.8963 42.9237L92.4495 42.6992C93.0695 41.4654 93.7027 40.256 94.3477 39.0724L94.7867 39.3116C95.4468 38.1002 96.1191 36.9162 96.8019 35.7611L96.3715 35.5067C97.077 34.3133 97.7938 33.1506 98.5201 32.0203L98.9408 32.2906C99.6884 31.1272 100.446 29.9985 101.211 28.9066L100.802 28.6195C101.603 27.4774 102.412 26.3749 103.229 25.3143L103.625 25.6193C104.472 24.5178 105.327 23.4622 106.186 22.4549L105.805 22.1305C106.716 21.0629 107.631 20.0488 108.549 19.091L108.91 19.4369C109.878 18.4262 110.848 17.4796 111.816 16.6005L111.48 16.2303C112.532 15.2756 113.582 14.3987 114.626 13.6042L114.929 14.0021C116.054 13.1466 117.169 12.3893 118.27 11.7354L118.015 11.3055C119.254 10.5694 120.478 9.96011 121.679 9.4855L121.862 9.95049C123.178 9.43056 124.457 9.07904 125.69 8.90262L125.619 8.40766Z" stroke="black" stroke-opacity="0.25" stroke-dasharray="4 4"/>
</svg>
