<svg width="32" height="32" viewBox="0 0 32 32" fill="none" xmlns="http://www.w3.org/2000/svg">
<circle cx="16" cy="16" r="15.5" stroke="black" stroke-dasharray="4 4"/>
<g clip-path="url(#clip0_13_497)">
<path d="M12.5999 16.6H11.3999V17.8H12.5999V16.6Z" fill="#001AFF"/>
<path d="M12.5999 15.4H11.3999V16.6H12.5999V15.4Z" fill="#001AFF"/>
<path d="M11.4002 8.19998H10.2002V9.39998H11.4002V8.19998Z" fill="#001AFF"/>
<path d="M12.5999 14.2H11.3999V15.4H12.5999V14.2Z" fill="#001AFF"/>
<path d="M12.5999 13H11.3999V14.2H12.5999V13Z" fill="#001AFF"/>
<path d="M12.5999 11.8H11.3999V13H12.5999V11.8Z" fill="#001AFF"/>
<path d="M12.5999 10.6H11.3999V11.8H12.5999V10.6Z" fill="#001AFF"/>
<path d="M12.5999 9.40002H11.3999V10.6H12.5999V9.40002Z" fill="#001AFF"/>
<path d="M12.5999 8.19998H11.3999V9.39998H12.5999V8.19998Z" fill="#001AFF"/>
<path d="M13.8001 14.2H12.6001V15.4H13.8001V14.2Z" fill="#001AFF"/>
<path d="M13.8001 8.19998H12.6001V9.39998H13.8001V8.19998Z" fill="#001AFF"/>
<path d="M14.9998 8.19998H13.7998V9.39998H14.9998V8.19998Z" fill="#001AFF"/>
<path d="M16.2 9.40002H15V10.6H16.2V9.40002Z" fill="#001AFF"/>
<path d="M16.2 8.19998H15V9.39998H16.2V8.19998Z" fill="#001AFF"/>
<path d="M17.4002 9.40002H16.2002V10.6H17.4002V9.40002Z" fill="#001AFF"/>
<path d="M17.4002 8.19998H16.2002V9.39998H17.4002V8.19998Z" fill="#001AFF"/>
<path d="M18.5999 8.19998H17.3999V9.39998H18.5999V8.19998Z" fill="#001AFF"/>
<path d="M19.8001 14.2H18.6001V15.4H19.8001V14.2Z" fill="#001AFF"/>
<path d="M19.8001 8.19998H18.6001V9.39998H19.8001V8.19998Z" fill="#001AFF"/>
<path d="M20.9998 14.2H19.7998V15.4H20.9998V14.2Z" fill="#001AFF"/>
<path d="M20.9998 13H19.7998V14.2H20.9998V13Z" fill="#001AFF"/>
<path d="M20.9998 11.8H19.7998V13H20.9998V11.8Z" fill="#001AFF"/>
<path d="M20.9998 10.6H19.7998V11.8H20.9998V10.6Z" fill="#001AFF"/>
<path d="M20.9998 9.40002H19.7998V10.6H20.9998V9.40002Z" fill="#001AFF"/>
<path d="M20.9998 8.19998H19.7998V9.39998H20.9998V8.19998Z" fill="#001AFF"/>
<path d="M22.2 8.19998H21V9.39998H22.2V8.19998Z" fill="#001AFF"/>
<path d="M14.9998 15.4H13.7998V16.6H14.9998V15.4Z" fill="#001AFF"/>
<path d="M18.5999 15.4H17.3999V16.6H18.5999V15.4Z" fill="#001AFF"/>
<path d="M20.9998 15.4H19.7998V16.6H20.9998V15.4Z" fill="#001AFF"/>
<path d="M13.8001 16.6H12.6001V17.8H13.8001V16.6Z" fill="#001AFF"/>
<path d="M13.8001 17.8H12.6001V19H13.8001V17.8Z" fill="#001AFF"/>
<path d="M14.9998 17.8H13.7998V19H14.9998V17.8Z" fill="#001AFF"/>
<path d="M14.9998 19H13.7998V20.2H14.9998V19Z" fill="#001AFF"/>
<path d="M16.2 19H15V20.2H16.2V19Z" fill="#001AFF"/>
<path d="M16.2 20.2H15V21.4H16.2V20.2Z" fill="#001AFF"/>
<path d="M17.4002 20.2H16.2002V21.4H17.4002V20.2Z" fill="#001AFF"/>
<path d="M16.2 21.4H15V22.6H16.2V21.4Z" fill="#001AFF"/>
<path d="M17.4002 21.4H16.2002V22.6H17.4002V21.4Z" fill="#001AFF"/>
<path d="M17.4002 22.6H16.2002V23.8H17.4002V22.6Z" fill="#001AFF"/>
<path d="M17.4002 23.8H16.2002V25H17.4002V23.8Z" fill="#001AFF"/>
<path d="M16.2 22.6H15V23.8H16.2V22.6Z" fill="#001AFF"/>
<path d="M17.4002 19H16.2002V20.2H17.4002V19Z" fill="#001AFF"/>
<path d="M18.5999 19H17.3999V20.2H18.5999V19Z" fill="#001AFF"/>
<path d="M18.5999 17.8H17.3999V19H18.5999V17.8Z" fill="#001AFF"/>
<path d="M19.8001 17.8H18.6001V19H19.8001V17.8Z" fill="#001AFF"/>
<path d="M16.2 16.6H15V17.8H16.2V16.6Z" fill="#001AFF"/>
<path d="M17.4002 16.6H16.2002V17.8H17.4002V16.6Z" fill="#001AFF"/>
<path d="M19.8001 16.6H18.6001V17.8H19.8001V16.6Z" fill="#001AFF"/>
<path d="M20.9998 16.6H19.7998V17.8H20.9998V16.6Z" fill="#001AFF"/>
<path d="M20.9998 16.6H19.7998V17.8H20.9998V16.6Z" fill="#001AFF"/>
</g>
<defs>
<clipPath id="clip0_13_497">
<rect width="14.4" height="18" fill="white" transform="translate(9 7)"/>
</clipPath>
</defs>
</svg>
