<svg width="16" height="16" viewBox="0 0 16 16" fill="none" xmlns="http://www.w3.org/2000/svg">
<g clip-path="url(#clip0_16_777)">
<path d="M1.01354 3.04651H0V7.8711H1.01354V3.04651Z" fill="#001AFF"/>
<path d="M7.86459 0H3.04395V1.01354H7.86459V0Z" fill="#001AFF"/>
<path d="M2.02721 2.03293H1.01367V3.04647H2.02721V2.03293Z" fill="#001AFF"/>
<path d="M3.04479 1.01346H2.03125V2.027H3.04479V1.01346Z" fill="#001AFF"/>
<path d="M3.04479 8.88745H2.03125V9.90099H3.04479V8.88745Z" fill="#001AFF"/>
<path d="M2.02721 7.86801H1.01367V8.88154H2.02721V7.86801Z" fill="#001AFF"/>
<path d="M10.909 3.04651H9.89551V7.8711H10.909V3.04651Z" fill="#001AFF"/>
<path d="M7.86459 9.90381H3.04395V10.9173H7.86459V9.90381Z" fill="#001AFF"/>
<path d="M9.89635 7.87088H8.88281V9.90388H9.89635V7.87088Z" fill="#001AFF"/>
<path d="M7.81432 2.99609H6.80078V4.00963H7.81432V2.99609Z" fill="#001AFF"/>
<path d="M3.97936 6.78601H2.96582V7.79955H3.97936V6.78601Z" fill="#001AFF"/>
<path d="M9.8956 8.89029H7.86426V9.90383H9.8956V8.89029Z" fill="#001AFF"/>
<path d="M11.9371 9.90063H9.90576V11.9336H11.9371V9.90063Z" fill="#001AFF"/>
<path d="M12.9527 10.9174H10.9214V12.9504H12.9527V10.9174Z" fill="#001AFF"/>
<path d="M13.9683 11.934H11.937V13.967H13.9683V11.934Z" fill="#001AFF"/>
<path d="M14.984 12.9503H12.9526V14.9833H14.984V12.9503Z" fill="#001AFF"/>
<path d="M16.0001 13.967H13.9688V16H16.0001V13.967Z" fill="#001AFF"/>
<path d="M9.89635 2.02991H8.88281V3.04345H9.89635V2.02991Z" fill="#001AFF"/>
<path d="M8.8778 1.0105H7.86426V2.02404H8.8778V1.0105Z" fill="#001AFF"/>
<path d="M8.8778 4.00961H7.86426V5.8823H8.8778V4.00961Z" fill="#001AFF"/>
<path d="M2.95299 4.93326H1.93945V6.80594H2.95299V4.93326Z" fill="#001AFF"/>
<path d="M5.84967 7.86801H3.97852V8.88154H5.84967V7.86801Z" fill="#001AFF"/>
</g>
<defs>
<clipPath id="clip0_16_777">
<rect width="16" height="16" fill="white"/>
</clipPath>
</defs>
</svg>
